# xmcd
#
# Track frame offsets:
#	150
#	16297
#	31047
#	48507
#	60631
#	81184
#	99838
#	113613
#	130317
#	143949
#	154598
#	168935
#	188060
#	200623
#	224047
#	239835
#	254090
#	268953
#
# Disc length: 3764 seconds
#
# Revision: 1
# Processed by: cddbd v1.5.2PL0 Copyright (c) Steve Scherf et al.
# Submitted via: EasyCDDAExtractor 15.2.5.1
#
DISCID=070eb212
DTITLE=奚秀兰 - 经典金曲18首-1 DTS-ES
DYEAR=1998
DGENRE=Oldies
TTITLE0=天涯歌女
TTITLE1=月圆花好
TTITLE2=琵琶怨
TTITLE3=楼台会
TTITLE4=叹十声
TTITLE5=月儿弯弯照九州
TTITLE6=何日君再来
TTITLE7=三年
TTITLE8=九个郎
TTITLE9=绣荷包
TTITLE10=五月的风
TTITLE11=苏州河边
TTITLE12=明月千里寄相思
TTITLE13=秋水伊人
TTITLE14=送君
TTITLE15=阿里山之歌
TTITLE16=拷红
TTITLE17=郊道
EXTD=YEAR: 1998
EXTT0=
EXTT1=
EXTT2=
EXTT3=
EXTT4=
EXTT5=
EXTT6=
EXTT7=
EXTT8=
EXTT9=
EXTT10=
EXTT11=
EXTT12=
EXTT13=
EXTT14=
EXTT15=
EXTT16=
EXTT17=
PLAYORDER=
